<svg width="123" height="24" viewBox="0 0 123 24" fill="none" xmlns="http://www.w3.org/2000/svg">
<path d="M0.684659 23.9091L3.7017 5.90909H6.7358L6.38636 8.07386H6.56534C6.76989 7.75568 7.04545 7.41761 7.39205 7.05966C7.74432 6.69602 8.19034 6.38636 8.73011 6.13068C9.26989 5.86932 9.92614 5.73864 10.6989 5.73864C11.7045 5.73864 12.571 5.99716 13.2983 6.5142C14.0256 7.02557 14.5455 7.78409 14.858 8.78977C15.1761 9.78977 15.2159 11.017 14.9773 12.4716C14.7386 13.9091 14.2983 15.1307 13.6562 16.1364C13.0142 17.142 12.2443 17.9091 11.3466 18.4375C10.4489 18.9659 9.4858 19.2301 8.45739 19.2301C7.70739 19.2301 7.10227 19.1051 6.64205 18.8551C6.1875 18.6051 5.84375 18.304 5.6108 17.9517C5.37784 17.5937 5.20455 17.2557 5.09091 16.9375H4.95455L3.79545 23.9091H0.684659ZM5.63636 12.4545C5.5 13.3011 5.49716 14.0426 5.62784 14.679C5.7642 15.3153 6.03409 15.8125 6.4375 16.1705C6.84091 16.5227 7.36932 16.6989 8.02273 16.6989C8.70455 16.6989 9.30114 16.517 9.8125 16.1534C10.3295 15.7841 10.7585 15.2812 11.0994 14.6449C11.446 14.0028 11.6903 13.2727 11.8324 12.4545C11.9631 11.642 11.9631 10.9205 11.8324 10.2898C11.7017 9.65909 11.4375 9.16477 11.0398 8.80682C10.642 8.44886 10.1023 8.26989 9.42045 8.26989C8.75568 8.26989 8.16193 8.44318 7.6392 8.78977C7.12216 9.13636 6.69318 9.62216 6.35227 10.2472C6.01136 10.8722 5.77273 11.608 5.63636 12.4545ZM16.5178 19L18.6996 5.90909H21.6911L21.3246 8.09091H21.4609C21.8189 7.33523 22.3246 6.75284 22.978 6.34375C23.6371 5.92898 24.3416 5.72159 25.0916 5.72159C25.2678 5.72159 25.4581 5.73011 25.6626 5.74716C25.8672 5.75852 26.0433 5.77841 26.1911 5.80682L25.7138 8.64489C25.5831 8.59943 25.3786 8.55966 25.1001 8.52557C24.8274 8.4858 24.5575 8.46591 24.2905 8.46591C23.728 8.46591 23.2053 8.58807 22.7223 8.83239C22.245 9.07102 21.8416 9.40341 21.5121 9.82955C21.1825 10.2557 20.9695 10.7472 20.8729 11.304L19.603 19H16.5178ZM31.2791 19.2557C29.9666 19.2557 28.8814 18.983 28.0234 18.4375C27.1655 17.8864 26.5632 17.108 26.2166 16.1023C25.8757 15.0909 25.8189 13.9006 26.0462 12.5312C26.2678 11.1847 26.7195 10.0028 27.4013 8.9858C28.0831 7.96307 28.9354 7.16761 29.9581 6.59943C30.9865 6.02557 32.1229 5.73864 33.3672 5.73864C34.174 5.73864 34.9155 5.86932 35.5916 6.13068C36.2678 6.38636 36.8388 6.78409 37.3047 7.32386C37.7706 7.86364 38.0916 8.55114 38.2678 9.38636C38.4439 10.2159 38.4354 11.2045 38.2422 12.3523L38.0973 13.2983H27.3587L27.6911 11.2188H35.4638C35.5661 10.6278 35.532 10.1023 35.3615 9.64205C35.1911 9.17614 34.907 8.80966 34.5092 8.54261C34.1115 8.27557 33.6143 8.14205 33.0178 8.14205C32.4098 8.14205 31.8416 8.2983 31.3132 8.6108C30.7905 8.91761 30.3501 9.31534 29.9922 9.80398C29.6342 10.2926 29.407 10.8068 29.3104 11.3466L28.9609 13.3409C28.8359 14.1591 28.8643 14.8267 29.0462 15.3438C29.228 15.8608 29.5462 16.2415 30.0007 16.4858C30.4553 16.7301 31.0291 16.8523 31.7223 16.8523C32.1768 16.8523 32.5973 16.7898 32.9837 16.6648C33.37 16.5398 33.7138 16.3523 34.0149 16.1023C34.3217 15.8466 34.5774 15.5341 34.782 15.1648L37.603 15.4886C37.2905 16.25 36.8331 16.9148 36.2308 17.483C35.6286 18.0455 34.907 18.483 34.0661 18.7955C33.2308 19.1023 32.3018 19.2557 31.2791 19.2557ZM32.3871 4.1875L30.4268 0.292614H33.4439L34.6967 4.1875H32.3871ZM51.7081 9.36932L48.87 9.67614C48.8416 9.38636 48.7536 9.11648 48.6058 8.86648C48.4581 8.61648 48.2365 8.41761 47.9411 8.26989C47.6513 8.11648 47.2763 8.03977 46.8161 8.03977C46.1456 8.03977 45.5575 8.19034 45.0518 8.49148C44.5462 8.79261 44.2592 9.17898 44.1911 9.65057C44.1286 10.0028 44.2138 10.2898 44.4467 10.5114C44.6797 10.733 45.1115 10.9205 45.7422 11.0739L47.907 11.5511C49.1001 11.8182 49.9581 12.25 50.4808 12.8466C51.0092 13.4432 51.1939 14.2244 51.0348 15.1903C50.8984 15.9972 50.5462 16.7074 49.978 17.321C49.4098 17.929 48.6825 18.4034 47.7962 18.7443C46.9155 19.0852 45.9382 19.2557 44.8643 19.2557C43.2337 19.2557 41.978 18.9176 41.0973 18.2415C40.2223 17.5597 39.7876 16.6222 39.7933 15.429L42.8274 15.1392C42.8615 15.7301 43.0689 16.1761 43.4496 16.4773C43.8303 16.7727 44.3587 16.9233 45.0348 16.929C45.7962 16.9347 46.4382 16.7756 46.9609 16.4517C47.4893 16.1222 47.7876 15.7216 47.8558 15.25C47.9126 14.8977 47.8246 14.6108 47.5916 14.3892C47.3643 14.1676 46.9581 13.9915 46.3729 13.8608L44.2251 13.392C43.0092 13.125 42.1428 12.6733 41.6257 12.0369C41.1143 11.3949 40.9411 10.5852 41.1058 9.60795C41.2422 8.8125 41.5746 8.12784 42.103 7.55398C42.6371 6.97443 43.3217 6.52841 44.157 6.21591C44.9922 5.89773 45.9268 5.73864 46.9609 5.73864C48.5178 5.73864 49.6911 6.06534 50.4808 6.71875C51.2706 7.37216 51.6797 8.25568 51.7081 9.36932Z" fill="#FD3D57"/>
<path d="M52.9055 19L53.2891 16.7159L60.3288 10.7756C61.005 10.1903 61.5732 9.67045 62.0334 9.21591C62.4993 8.75568 62.8658 8.31534 63.1328 7.89489C63.3999 7.46875 63.5732 7.0142 63.6527 6.53125C63.7436 5.98011 63.6982 5.50568 63.5163 5.10795C63.3345 4.71023 63.0447 4.40625 62.647 4.19602C62.255 3.98011 61.7805 3.87216 61.2237 3.87216C60.6499 3.87216 60.1243 3.99148 59.647 4.23011C59.1697 4.46307 58.772 4.79829 58.4538 5.23579C58.1413 5.66761 57.9368 6.17898 57.8402 6.76989H54.8317C55.0135 5.66193 55.4283 4.69886 56.076 3.88068C56.7237 3.0625 57.5334 2.42898 58.505 1.98011C59.4766 1.53125 60.5391 1.30682 61.6925 1.30682C62.8629 1.30682 63.8516 1.52557 64.6584 1.96307C65.4709 2.40057 66.0561 3 66.4141 3.76136C66.7777 4.52273 66.8771 5.39204 66.7124 6.36932C66.5987 7.02273 66.3629 7.66477 66.005 8.29545C65.6527 8.92045 65.0987 9.61932 64.343 10.392C63.5874 11.1591 62.5533 12.0881 61.2408 13.179L57.7379 16.2386L57.7124 16.358H65.3061L64.8714 19H52.9055ZM81.7209 5.90909L74.8771 19H71.468L68.9879 5.90909H72.1584L73.5561 15.6335H73.6925L78.3203 5.90909H81.7209ZM86.973 19.2557C85.6832 19.2557 84.6094 18.9716 83.7514 18.4034C82.8991 17.8352 82.2997 17.0369 81.9531 16.0085C81.6065 14.9801 81.544 13.7869 81.7656 12.429C81.9872 11.0881 82.4304 9.91477 83.0952 8.90909C83.7656 7.90341 84.6094 7.125 85.6264 6.57386C86.6491 6.01705 87.794 5.73864 89.0611 5.73864C90.3509 5.73864 91.4219 6.02557 92.2741 6.59943C93.1264 7.16761 93.7259 7.96591 94.0724 8.99432C94.4247 10.0227 94.4901 11.2216 94.2685 12.5909C94.0526 13.9261 93.6065 15.0938 92.9304 16.0938C92.2599 17.0938 91.4162 17.8722 90.3991 18.429C89.3821 18.9801 88.2401 19.2557 86.973 19.2557ZM87.2287 16.7841C87.9446 16.7841 88.5724 16.5909 89.1122 16.2045C89.6577 15.8125 90.1037 15.2869 90.4503 14.6278C90.8026 13.9631 91.0469 13.2244 91.1832 12.4119C91.3082 11.6278 91.3111 10.9176 91.1918 10.2812C91.0724 9.6392 90.8168 9.13068 90.4247 8.75568C90.0384 8.375 89.5014 8.18466 88.8139 8.18466C88.098 8.18466 87.4645 8.38352 86.9134 8.78125C86.3679 9.1733 85.9219 9.7017 85.5753 10.3665C85.2287 11.0256 84.9901 11.7614 84.8594 12.5739C84.7287 13.358 84.723 14.0682 84.8423 14.7045C84.9616 15.3409 85.2173 15.8466 85.6094 16.2216C86.0014 16.5966 86.5412 16.7841 87.2287 16.7841ZM105.086 13.4943L106.356 5.90909H109.441L107.259 19H104.268L104.66 16.6733H104.523C104.114 17.4062 103.529 18.0057 102.768 18.4716C102.012 18.9375 101.143 19.1705 100.16 19.1705C99.3018 19.1705 98.5774 18.9801 97.9865 18.5994C97.3956 18.2131 96.9751 17.6534 96.7251 16.9205C96.4808 16.1818 96.4439 15.2898 96.6143 14.2443L98.0121 5.90909H101.097L99.7848 13.767C99.6541 14.5966 99.7734 15.2557 100.143 15.7443C100.518 16.233 101.075 16.4773 101.813 16.4773C102.268 16.4773 102.725 16.3665 103.185 16.1449C103.651 15.9233 104.058 15.5938 104.404 15.1562C104.751 14.7131 104.978 14.1591 105.086 13.4943ZM122.372 9.36932L119.534 9.67614C119.506 9.38636 119.418 9.11648 119.27 8.86648C119.122 8.61648 118.901 8.41761 118.605 8.26989C118.315 8.11648 117.94 8.03977 117.48 8.03977C116.81 8.03977 116.222 8.19034 115.716 8.49148C115.21 8.79261 114.923 9.17898 114.855 9.65057C114.793 10.0028 114.878 10.2898 115.111 10.5114C115.344 10.733 115.776 10.9205 116.406 11.0739L118.571 11.5511C119.764 11.8182 120.622 12.25 121.145 12.8466C121.673 13.4432 121.858 14.2244 121.699 15.1903C121.563 15.9972 121.21 16.7074 120.642 17.321C120.074 17.929 119.347 18.4034 118.46 18.7443C117.58 19.0852 116.602 19.2557 115.528 19.2557C113.898 19.2557 112.642 18.9176 111.761 18.2415C110.886 17.5597 110.452 16.6222 110.457 15.429L113.491 15.1392C113.526 15.7301 113.733 16.1761 114.114 16.4773C114.494 16.7727 115.023 16.9233 115.699 16.929C116.46 16.9347 117.102 16.7756 117.625 16.4517C118.153 16.1222 118.452 15.7216 118.52 15.25C118.577 14.8977 118.489 14.6108 118.256 14.3892C118.028 14.1676 117.622 13.9915 117.037 13.8608L114.889 13.392C113.673 13.125 112.807 12.6733 112.29 12.0369C111.778 11.3949 111.605 10.5852 111.77 9.60795C111.906 8.8125 112.239 8.12784 112.767 7.55398C113.301 6.97443 113.986 6.52841 114.821 6.21591C115.656 5.89773 116.591 5.73864 117.625 5.73864C119.182 5.73864 120.355 6.06534 121.145 6.71875C121.935 7.37216 122.344 8.25568 122.372 9.36932Z" fill="black"/>
</svg>
