<svg width="163" height="32" viewBox="0 0 163 32" fill="none" xmlns="http://www.w3.org/2000/svg">
<path d="M0.579545 31.5455L4.60227 7.54545H8.64773L8.18182 10.4318H8.42045C8.69318 10.0076 9.06061 9.55682 9.52273 9.07955C9.99242 8.5947 10.5871 8.18182 11.3068 7.84091C12.0265 7.49242 12.9015 7.31818 13.9318 7.31818C15.2727 7.31818 16.428 7.66288 17.3977 8.35227C18.3674 9.03409 19.0606 10.0455 19.4773 11.3864C19.9015 12.7197 19.9545 14.3561 19.6364 16.2955C19.3182 18.2121 18.7311 19.8409 17.875 21.1818C17.0189 22.5227 15.9924 23.5455 14.7955 24.25C13.5985 24.9545 12.3144 25.3068 10.9432 25.3068C9.94318 25.3068 9.13636 25.1402 8.52273 24.8068C7.91667 24.4735 7.45833 24.072 7.14773 23.6023C6.83712 23.125 6.60606 22.6742 6.45455 22.25H6.27273L4.72727 31.5455H0.579545ZM7.18182 16.2727C7 17.4015 6.99621 18.3902 7.17045 19.2386C7.35227 20.0871 7.71212 20.75 8.25 21.2273C8.78788 21.697 9.49242 21.9318 10.3636 21.9318C11.2727 21.9318 12.0682 21.6894 12.75 21.2045C13.4394 20.7121 14.0114 20.0417 14.4659 19.1932C14.928 18.3371 15.2538 17.3636 15.4432 16.2727C15.6174 15.1894 15.6174 14.2273 15.4432 13.3864C15.2689 12.5455 14.9167 11.8864 14.3864 11.4091C13.8561 10.9318 13.1364 10.6932 12.2273 10.6932C11.3409 10.6932 10.5492 10.9242 9.85227 11.3864C9.16288 11.8485 8.59091 12.4962 8.13636 13.3295C7.68182 14.1629 7.36364 15.1439 7.18182 16.2727ZM21.6903 25L24.5994 7.54545H28.5881L28.0994 10.4545H28.2812C28.7585 9.44697 29.4328 8.67045 30.304 8.125C31.1828 7.57197 32.1222 7.29545 33.1222 7.29545C33.357 7.29545 33.6108 7.30682 33.8835 7.32954C34.1563 7.3447 34.3911 7.37121 34.5881 7.40909L33.9517 11.1932C33.7775 11.1326 33.5047 11.0795 33.1335 11.0341C32.7699 10.9811 32.41 10.9545 32.054 10.9545C31.304 10.9545 30.607 11.1174 29.9631 11.4432C29.3267 11.7614 28.7888 12.2045 28.3494 12.7727C27.91 13.3409 27.6259 13.9962 27.4972 14.7386L25.804 25H21.6903ZM41.3722 25.3409C39.6222 25.3409 38.1752 24.9773 37.0312 24.25C35.8873 23.5152 35.0843 22.4773 34.6222 21.1364C34.1676 19.7879 34.0919 18.2008 34.3949 16.375C34.6903 14.5795 35.2926 13.0038 36.2017 11.6477C37.1108 10.2841 38.2472 9.22348 39.6108 8.46591C40.982 7.70076 42.4972 7.31818 44.1562 7.31818C45.232 7.31818 46.2206 7.49242 47.1222 7.84091C48.0237 8.18182 48.785 8.71212 49.4062 9.43182C50.0275 10.1515 50.4555 11.0682 50.6903 12.1818C50.9252 13.2879 50.9138 14.6061 50.6562 16.1364L50.4631 17.3977H36.1449L36.5881 14.625H46.9517C47.0881 13.8371 47.0426 13.1364 46.8153 12.5227C46.5881 11.9015 46.2093 11.4129 45.679 11.0568C45.1487 10.7008 44.4858 10.5227 43.6903 10.5227C42.8797 10.5227 42.1222 10.7311 41.4176 11.1477C40.7206 11.5568 40.1335 12.0871 39.6562 12.7386C39.179 13.3902 38.8759 14.0758 38.7472 14.7955L38.2812 17.4545C38.1146 18.5455 38.1525 19.4356 38.3949 20.125C38.6373 20.8144 39.0616 21.322 39.6676 21.6477C40.2737 21.9735 41.0388 22.1364 41.9631 22.1364C42.5691 22.1364 43.1297 22.053 43.6449 21.8864C44.16 21.7197 44.6184 21.4697 45.0199 21.1364C45.429 20.7955 45.7699 20.3788 46.0426 19.8864L49.804 20.3182C49.3873 21.3333 48.7775 22.2197 47.9744 22.9773C47.1714 23.7273 46.2093 24.3106 45.0881 24.7273C43.9744 25.1364 42.7358 25.3409 41.3722 25.3409ZM42.8494 5.25L40.2358 0.056818H44.2585L45.929 5.25H42.8494ZM68.6108 12.1591L64.8267 12.5682C64.7888 12.1818 64.6714 11.822 64.4744 11.4886C64.2775 11.1553 63.982 10.8902 63.5881 10.6932C63.2017 10.4886 62.7017 10.3864 62.0881 10.3864C61.1941 10.3864 60.41 10.5871 59.7358 10.9886C59.0616 11.3902 58.679 11.9053 58.5881 12.5341C58.5047 13.0038 58.6184 13.3864 58.929 13.6818C59.2396 13.9773 59.8153 14.2273 60.6562 14.4318L63.5426 15.0682C65.1335 15.4242 66.2775 16 66.9744 16.7955C67.679 17.5909 67.9252 18.6326 67.7131 19.9205C67.5313 20.9962 67.0616 21.9432 66.304 22.7614C65.5464 23.572 64.5767 24.2045 63.3949 24.6591C62.2206 25.1136 60.9176 25.3409 59.4858 25.3409C57.3116 25.3409 55.6373 24.8902 54.4631 23.9886C53.2964 23.0795 52.7169 21.8295 52.7244 20.2386L56.7699 19.8523C56.8153 20.6402 57.0919 21.2348 57.5994 21.6364C58.107 22.0303 58.8116 22.2311 59.7131 22.2386C60.7282 22.2462 61.5843 22.0341 62.2812 21.6023C62.9858 21.1629 63.3835 20.6288 63.4744 20C63.5502 19.5303 63.4328 19.1477 63.1222 18.8523C62.8191 18.5568 62.2775 18.322 61.4972 18.1477L58.6335 17.5227C57.0123 17.1667 55.857 16.5644 55.1676 15.7159C54.4858 14.8598 54.2547 13.7803 54.4744 12.4773C54.6563 11.4167 55.0994 10.5038 55.804 9.73864C56.5161 8.96591 57.429 8.37121 58.5426 7.95454C59.6562 7.5303 60.9025 7.31818 62.2812 7.31818C64.357 7.31818 65.9214 7.75379 66.9744 8.625C68.0275 9.49621 68.5729 10.6742 68.6108 12.1591Z" fill="#FD3D57"/>
<path d="M70.2074 25L70.7188 21.9545L80.1051 14.0341C81.0066 13.2538 81.7642 12.5606 82.3778 11.9545C82.9991 11.3409 83.4877 10.7538 83.8438 10.1932C84.1998 9.625 84.4309 9.01894 84.5369 8.375C84.6581 7.64015 84.5975 7.00757 84.3551 6.47727C84.1127 5.94697 83.7263 5.54167 83.196 5.26136C82.6733 4.97348 82.0407 4.82954 81.2983 4.82954C80.5331 4.82954 79.8324 4.98864 79.196 5.30682C78.5597 5.61742 78.0294 6.06439 77.6051 6.64773C77.1884 7.22348 76.9157 7.9053 76.7869 8.69318H72.7756C73.018 7.21591 73.571 5.93182 74.4347 4.84091C75.2983 3.75 76.3778 2.9053 77.6733 2.30682C78.9688 1.70833 80.3854 1.40909 81.9233 1.40909C83.4839 1.40909 84.8021 1.70076 85.8778 2.28409C86.9612 2.86742 87.7415 3.66667 88.2188 4.68182C88.7036 5.69697 88.8362 6.85606 88.6165 8.15909C88.465 9.0303 88.1506 9.88636 87.6733 10.7273C87.2036 11.5606 86.465 12.4924 85.4574 13.5227C84.4498 14.5455 83.071 15.7841 81.321 17.2386L76.6506 21.3182L76.6165 21.4773H86.7415L86.1619 25H70.2074ZM108.628 7.54545L99.5028 25H94.9574L91.6506 7.54545H95.8778L97.7415 20.5114H97.9233L104.094 7.54545H108.628ZM115.631 25.3409C113.911 25.3409 112.479 24.9621 111.335 24.2045C110.199 23.447 109.4 22.3826 108.938 21.0114C108.475 19.6402 108.392 18.0492 108.688 16.2386C108.983 14.4508 109.574 12.8864 110.46 11.5455C111.354 10.2045 112.479 9.16667 113.835 8.43182C115.199 7.68939 116.725 7.31818 118.415 7.31818C120.134 7.31818 121.563 7.70076 122.699 8.46591C123.835 9.22348 124.634 10.2879 125.097 11.6591C125.566 13.0303 125.653 14.6288 125.358 16.4545C125.07 18.2348 124.475 19.7917 123.574 21.125C122.68 22.4583 121.555 23.4962 120.199 24.2386C118.843 24.9735 117.32 25.3409 115.631 25.3409ZM115.972 22.0455C116.926 22.0455 117.763 21.7879 118.483 21.2727C119.21 20.75 119.805 20.0492 120.267 19.1705C120.737 18.2841 121.063 17.2992 121.244 16.2159C121.411 15.1705 121.415 14.2235 121.256 13.375C121.097 12.5189 120.756 11.8409 120.233 11.3409C119.718 10.8333 119.002 10.5795 118.085 10.5795C117.131 10.5795 116.286 10.8447 115.551 11.375C114.824 11.8977 114.229 12.6023 113.767 13.4886C113.305 14.3674 112.987 15.3485 112.812 16.4318C112.638 17.4773 112.631 18.4242 112.79 19.2727C112.949 20.1212 113.29 20.7955 113.812 21.2955C114.335 21.7955 115.055 22.0455 115.972 22.0455ZM139.781 17.6591L141.474 7.54545H145.588L142.679 25H138.69L139.213 21.8977H139.031C138.486 22.875 137.705 23.6742 136.69 24.2955C135.683 24.9167 134.524 25.2273 133.213 25.2273C132.069 25.2273 131.103 24.9735 130.315 24.4659C129.527 23.9508 128.967 23.2045 128.634 22.2273C128.308 21.2424 128.259 20.053 128.486 18.6591L130.349 7.54545H134.463L132.713 18.0227C132.539 19.1288 132.698 20.0076 133.19 20.6591C133.69 21.3106 134.433 21.6364 135.418 21.6364C136.024 21.6364 136.634 21.4886 137.247 21.1932C137.868 20.8977 138.41 20.4583 138.872 19.875C139.334 19.2841 139.637 18.5455 139.781 17.6591ZM162.83 12.1591L159.045 12.5682C159.008 12.1818 158.89 11.822 158.693 11.4886C158.496 11.1553 158.201 10.8902 157.807 10.6932C157.42 10.4886 156.92 10.3864 156.307 10.3864C155.413 10.3864 154.629 10.5871 153.955 10.9886C153.28 11.3902 152.898 11.9053 152.807 12.5341C152.723 13.0038 152.837 13.3864 153.148 13.6818C153.458 13.9773 154.034 14.2273 154.875 14.4318L157.761 15.0682C159.352 15.4242 160.496 16 161.193 16.7955C161.898 17.5909 162.144 18.6326 161.932 19.9205C161.75 20.9962 161.28 21.9432 160.523 22.7614C159.765 23.572 158.795 24.2045 157.614 24.6591C156.439 25.1136 155.136 25.3409 153.705 25.3409C151.53 25.3409 149.856 24.8902 148.682 23.9886C147.515 23.0795 146.936 21.8295 146.943 20.2386L150.989 19.8523C151.034 20.6402 151.311 21.2348 151.818 21.6364C152.326 22.0303 153.03 22.2311 153.932 22.2386C154.947 22.2462 155.803 22.0341 156.5 21.6023C157.205 21.1629 157.602 20.6288 157.693 20C157.769 19.5303 157.652 19.1477 157.341 18.8523C157.038 18.5568 156.496 18.322 155.716 18.1477L152.852 17.5227C151.231 17.1667 150.076 16.5644 149.386 15.7159C148.705 14.8598 148.473 13.7803 148.693 12.4773C148.875 11.4167 149.318 10.5038 150.023 9.73864C150.735 8.96591 151.648 8.37121 152.761 7.95454C153.875 7.5303 155.121 7.31818 156.5 7.31818C158.576 7.31818 160.14 7.75379 161.193 8.625C162.246 9.49621 162.792 10.6742 162.83 12.1591Z" fill="black"/>
</svg>
