<svg width="77" height="16" viewBox="0 0 77 16" fill="none" xmlns="http://www.w3.org/2000/svg">
<path d="M0.802912 15.0682L2.68857 3.81818H4.58487L4.36648 5.17116H4.47834C4.60618 4.9723 4.77841 4.76101 4.99503 4.53729C5.2152 4.31001 5.49396 4.11648 5.83132 3.95668C6.16868 3.79332 6.57884 3.71165 7.06179 3.71165C7.69034 3.71165 8.23189 3.87322 8.68643 4.19638C9.14098 4.51598 9.46591 4.99006 9.66122 5.61861C9.86009 6.24361 9.88494 7.01065 9.7358 7.91974C9.58665 8.81818 9.31143 9.58168 8.91016 10.2102C8.50888 10.8388 8.0277 11.3182 7.46662 11.6484C6.90554 11.9787 6.30362 12.1438 5.66087 12.1438C5.19212 12.1438 4.81392 12.0657 4.52628 11.9094C4.24219 11.7532 4.02734 11.565 3.88175 11.3448C3.73615 11.1211 3.62784 10.9098 3.55682 10.7109H3.47159L2.74716 15.0682H0.802912ZM3.89773 7.90909C3.8125 8.43821 3.81072 8.90163 3.8924 9.29936C3.97763 9.69709 4.14631 10.0078 4.39844 10.2315C4.65057 10.4517 4.98082 10.5618 5.3892 10.5618C5.81534 10.5618 6.18821 10.4482 6.50781 10.2209C6.83097 9.99006 7.09908 9.67578 7.31215 9.27805C7.52876 8.87678 7.68146 8.42045 7.77024 7.90909C7.85192 7.40128 7.85192 6.95028 7.77024 6.55611C7.68857 6.16193 7.52344 5.85298 7.27486 5.62926C7.02628 5.40554 6.68892 5.29368 6.26278 5.29368C5.8473 5.29368 5.47621 5.40199 5.1495 5.61861C4.82635 5.83523 4.55824 6.13885 4.34517 6.52947C4.1321 6.9201 3.98295 7.37997 3.89773 7.90909ZM10.6986 12L12.0622 3.81818H13.9319L13.7029 5.18182H13.7881C14.0118 4.70952 14.3279 4.34553 14.7362 4.08984C15.1482 3.83061 15.5885 3.70099 16.0573 3.70099C16.1673 3.70099 16.2863 3.70632 16.4142 3.71697C16.542 3.72408 16.6521 3.73651 16.7444 3.75426L16.4461 5.52805C16.3644 5.49964 16.2366 5.47479 16.0626 5.45348C15.8921 5.42862 15.7235 5.41619 15.5566 5.41619C15.205 5.41619 14.8783 5.49254 14.5764 5.64524C14.2781 5.79439 14.026 6.00213 13.82 6.26847C13.6141 6.5348 13.4809 6.84197 13.4205 7.18999L12.6269 12H10.6986ZM19.9244 12.1598C19.1041 12.1598 18.4259 11.9893 17.8896 11.6484C17.3534 11.304 16.977 10.8175 16.7604 10.1889C16.5473 9.55682 16.5118 8.81286 16.6539 7.95703C16.7923 7.11541 17.0747 6.37678 17.5008 5.74112C17.9269 5.10192 18.4596 4.60476 19.0988 4.24964C19.7416 3.89098 20.4518 3.71165 21.2295 3.71165C21.7338 3.71165 22.1972 3.79332 22.6198 3.95668C23.0423 4.11648 23.3992 4.36506 23.6904 4.70241C23.9816 5.03977 24.1823 5.46946 24.2923 5.99148C24.4024 6.50994 24.3971 7.12784 24.2764 7.84517L24.1858 8.43643H17.4742L17.6819 7.13672H22.5399C22.6038 6.7674 22.5825 6.43892 22.4759 6.15128C22.3694 5.86009 22.1919 5.63104 21.9433 5.46413C21.6947 5.29723 21.384 5.21378 21.0111 5.21378C20.6311 5.21378 20.276 5.31143 19.9458 5.50675C19.6191 5.69851 19.3438 5.94709 19.1201 6.25249C18.8964 6.55788 18.7544 6.87926 18.694 7.21662L18.4756 8.46307C18.3975 8.97443 18.4152 9.39169 18.5289 9.71484C18.6425 10.038 18.8414 10.2759 19.1254 10.4286C19.4095 10.5813 19.7682 10.6577 20.2014 10.6577C20.4855 10.6577 20.7483 10.6186 20.9898 10.5405C21.2313 10.4624 21.4461 10.3452 21.6343 10.1889C21.8261 10.0291 21.9859 9.83381 22.1137 9.60298L23.8769 9.8054C23.6816 10.2812 23.3957 10.6967 23.0193 11.0518C22.6428 11.4034 22.1919 11.6768 21.6663 11.8722C21.1443 12.0639 20.5637 12.1598 19.9244 12.1598ZM20.6169 2.74219L19.3918 0.307883H21.2774L22.0605 2.74219H20.6169ZM32.6926 5.98082L30.9188 6.17258C30.901 5.99148 30.846 5.8228 30.7536 5.66655C30.6613 5.5103 30.5228 5.38601 30.3382 5.29368C30.157 5.1978 29.9227 5.14986 29.635 5.14986C29.216 5.14986 28.8485 5.24396 28.5324 5.43217C28.2164 5.62038 28.037 5.86186 27.9944 6.15661C27.9553 6.37678 28.0086 6.55611 28.1542 6.6946C28.2998 6.8331 28.5697 6.95028 28.9639 7.04616L30.3169 7.34446C31.0626 7.51136 31.5988 7.78125 31.9255 8.15412C32.2558 8.52699 32.3712 9.01527 32.2718 9.61896C32.1865 10.1232 31.9664 10.5671 31.6112 10.9506C31.2561 11.3306 30.8016 11.6271 30.2476 11.8402C29.6972 12.0533 29.0864 12.1598 28.4152 12.1598C27.396 12.1598 26.6112 11.9485 26.0608 11.5259C25.5139 11.0998 25.2423 10.5138 25.2458 9.76811L27.1421 9.587C27.1634 9.95632 27.2931 10.2351 27.531 10.4233C27.7689 10.608 28.0992 10.7021 28.5218 10.7056C28.9976 10.7092 29.3989 10.6097 29.7256 10.4073C30.0558 10.2013 30.2423 9.95099 30.2849 9.65625C30.3204 9.43608 30.2654 9.25675 30.1198 9.11825C29.9777 8.97976 29.7238 8.86967 29.358 8.788L28.0157 8.49503C27.2558 8.32812 26.7142 8.04581 26.3911 7.64808C26.0715 7.2468 25.9632 6.74077 26.0661 6.12997C26.1514 5.63281 26.3591 5.2049 26.6894 4.84624C27.0232 4.48402 27.4511 4.20526 27.9731 4.00994C28.4951 3.81108 29.0793 3.71165 29.7256 3.71165C30.6986 3.71165 31.4319 3.91584 31.9255 4.32422C32.4191 4.7326 32.6748 5.2848 32.6926 5.98082Z" fill="#FD3D57"/>
<path d="M33.441 12L33.6807 10.5724L38.0805 6.85973C38.5031 6.49396 38.8582 6.16903 39.1459 5.88494C39.4371 5.5973 39.6661 5.32209 39.833 5.0593C39.9999 4.79297 40.1082 4.50888 40.1579 4.20703C40.2148 3.86257 40.1863 3.56605 40.0727 3.31747C39.9591 3.06889 39.778 2.87891 39.5294 2.74751C39.2844 2.61257 38.9878 2.5451 38.6398 2.5451C38.2812 2.5451 37.9527 2.61967 37.6544 2.76882C37.3561 2.91442 37.1075 3.12393 36.9086 3.39737C36.7133 3.66726 36.5855 3.98686 36.5251 4.35618H34.6448C34.7584 3.66371 35.0177 3.06179 35.4225 2.55043C35.8273 2.03906 36.3334 1.64311 36.9406 1.36257C37.5479 1.08203 38.2119 0.941761 38.9328 0.941761C39.6643 0.941761 40.2822 1.07848 40.7865 1.35192C41.2943 1.62535 41.6601 2 41.8838 2.47585C42.1111 2.9517 42.1732 3.49503 42.0702 4.10582C41.9992 4.5142 41.8518 4.91548 41.6281 5.30966C41.4079 5.70028 41.0617 6.13707 40.5894 6.62003C40.1171 7.09943 39.4708 7.68004 38.6505 8.36186L36.4612 10.2741L36.4452 10.3487H41.1913L40.9197 12H33.441ZM51.4506 3.81818L47.1732 12H45.0425L43.4925 3.81818H45.474L46.3476 9.89595H46.4328L49.3252 3.81818H51.4506ZM54.7331 12.1598C53.927 12.1598 53.2559 11.9822 52.7196 11.6271C52.187 11.272 51.8123 10.7731 51.5957 10.1303C51.3791 9.48757 51.34 8.74183 51.4785 7.89311C51.617 7.05504 51.894 6.32173 52.3095 5.69318C52.7285 5.06463 53.2559 4.57812 53.8915 4.23366C54.5307 3.88565 55.2463 3.71165 56.0382 3.71165C56.8443 3.71165 57.5137 3.89098 58.0463 4.24964C58.579 4.60476 58.9537 5.10369 59.1703 5.74645C59.3904 6.3892 59.4313 7.13849 59.2928 7.99432C59.1578 8.82884 58.8791 9.55859 58.4565 10.1836C58.0375 10.8086 57.5101 11.2951 56.8745 11.6431C56.2388 11.9876 55.525 12.1598 54.7331 12.1598ZM54.8929 10.6151C55.3404 10.6151 55.7328 10.4943 56.0701 10.2528C56.411 10.0078 56.6898 9.67933 56.9064 9.2674C57.1266 8.85192 57.2793 8.39027 57.3645 7.88246C57.4426 7.3924 57.4444 6.94851 57.3699 6.55078C57.2953 6.1495 57.1355 5.83168 56.8904 5.5973C56.649 5.35937 56.3134 5.24041 55.8837 5.24041C55.4363 5.24041 55.0403 5.3647 54.6958 5.61328C54.3549 5.85831 54.0762 6.18857 53.8596 6.60405C53.6429 7.01598 53.4938 7.47585 53.4121 7.98366C53.3304 8.47372 53.3269 8.91761 53.4015 9.31534C53.476 9.71307 53.6358 10.0291 53.8809 10.2635C54.1259 10.4979 54.4632 10.6151 54.8929 10.6151ZM66.0537 8.55895L66.8474 3.81818H68.7757L67.412 12H65.5423L65.7874 10.5458H65.7021C65.4465 11.0039 65.0807 11.3786 64.6048 11.6697C64.1325 11.9609 63.5892 12.1065 62.9749 12.1065C62.4387 12.1065 61.9859 11.9876 61.6166 11.7496C61.2472 11.5082 60.9845 11.1584 60.8282 10.7003C60.6755 10.2386 60.6524 9.68111 60.759 9.0277L61.6325 3.81818H63.5608L62.7405 8.7294C62.6588 9.24787 62.7334 9.6598 62.9642 9.9652C63.1986 10.2706 63.5466 10.4233 64.0083 10.4233C64.2923 10.4233 64.5782 10.354 64.8659 10.2156C65.157 10.0771 65.411 9.87109 65.6276 9.59766C65.8442 9.32067 65.9862 8.97443 66.0537 8.55895ZM76.8576 5.98082L75.0838 6.17258C75.0661 5.99148 75.011 5.8228 74.9187 5.66655C74.8263 5.5103 74.6879 5.38601 74.5032 5.29368C74.3221 5.1978 74.0877 5.14986 73.8001 5.14986C73.381 5.14986 73.0135 5.24396 72.6974 5.43217C72.3814 5.62038 72.2021 5.86186 72.1594 6.15661C72.1204 6.37678 72.1737 6.55611 72.3192 6.6946C72.4648 6.8331 72.7347 6.95028 73.1289 7.04616L74.4819 7.34446C75.2276 7.51136 75.7638 7.78125 76.0906 8.15412C76.4208 8.52699 76.5362 9.01527 76.4368 9.61896C76.3516 10.1232 76.1314 10.5671 75.7763 10.9506C75.4212 11.3306 74.9666 11.6271 74.4126 11.8402C73.8622 12.0533 73.2514 12.1598 72.5803 12.1598C71.5611 12.1598 70.7763 11.9485 70.2259 11.5259C69.679 11.0998 69.4073 10.5138 69.4109 9.76811L71.3072 9.587C71.3285 9.95632 71.4581 10.2351 71.696 10.4233C71.9339 10.608 72.2642 10.7021 72.6868 10.7056C73.1626 10.7092 73.5639 10.6097 73.8906 10.4073C74.2209 10.2013 74.4073 9.95099 74.4499 9.65625C74.4854 9.43608 74.4304 9.25675 74.2848 9.11825C74.1428 8.97976 73.8888 8.86967 73.5231 8.788L72.1808 8.49503C71.4208 8.32812 70.8793 8.04581 70.5561 7.64808C70.2365 7.2468 70.1282 6.74077 70.2312 6.12997C70.3164 5.63281 70.5241 5.2049 70.8544 4.84624C71.1882 4.48402 71.6161 4.20526 72.1381 4.00994C72.6602 3.81108 73.2443 3.71165 73.8906 3.71165C74.8636 3.71165 75.5969 3.91584 76.0906 4.32422C76.5842 4.7326 76.8398 5.2848 76.8576 5.98082Z" fill="black"/>
</svg>
