<svg width="82" height="17" viewBox="0 0 82 17" fill="none" xmlns="http://www.w3.org/2000/svg">
<path d="M0.789773 16.2727L2.80114 4.27273H4.82386L4.59091 5.71591H4.71023C4.84659 5.50379 5.0303 5.27841 5.26136 5.03977C5.49621 4.79735 5.79356 4.59091 6.15341 4.42045C6.51326 4.24621 6.95076 4.15909 7.46591 4.15909C8.13636 4.15909 8.71402 4.33144 9.19886 4.67614C9.68371 5.01705 10.0303 5.52273 10.2386 6.19318C10.4508 6.85985 10.4773 7.67803 10.3182 8.64773C10.1591 9.60606 9.86553 10.4205 9.4375 11.0909C9.00947 11.7614 8.49621 12.2727 7.89773 12.625C7.29924 12.9773 6.6572 13.1534 5.97159 13.1534C5.47159 13.1534 5.06818 13.0701 4.76136 12.9034C4.45833 12.7367 4.22917 12.536 4.07386 12.3011C3.91856 12.0625 3.80303 11.8371 3.72727 11.625H3.63636L2.86364 16.2727H0.789773ZM4.09091 8.63636C4 9.20076 3.99811 9.69508 4.08523 10.1193C4.17614 10.5436 4.35606 10.875 4.625 11.1136C4.89394 11.3485 5.24621 11.4659 5.68182 11.4659C6.13636 11.4659 6.53409 11.3447 6.875 11.1023C7.2197 10.8561 7.50568 10.5208 7.73295 10.0966C7.96402 9.66856 8.12689 9.18182 8.22159 8.63636C8.30871 8.0947 8.30871 7.61364 8.22159 7.19318C8.13447 6.77273 7.95833 6.44318 7.69318 6.20455C7.42803 5.96591 7.06818 5.84659 6.61364 5.84659C6.17045 5.84659 5.77462 5.96212 5.42614 6.19318C5.08144 6.42424 4.79545 6.74811 4.56818 7.16477C4.34091 7.58144 4.18182 8.07197 4.09091 8.63636ZM11.3452 13L12.7997 4.27273H14.794L14.5497 5.72727H14.6406C14.8793 5.22348 15.2164 4.83523 15.652 4.5625C16.0914 4.28598 16.5611 4.14773 17.0611 4.14773C17.1785 4.14773 17.3054 4.15341 17.4418 4.16477C17.5781 4.17235 17.6955 4.18561 17.794 4.20455L17.4759 6.09659C17.3887 6.06629 17.2524 6.03977 17.0668 6.01705C16.8849 5.99053 16.705 5.97727 16.527 5.97727C16.152 5.97727 15.8035 6.05871 15.4815 6.22159C15.1634 6.38068 14.8944 6.60227 14.6747 6.88636C14.455 7.17045 14.313 7.49811 14.2486 7.86932L13.402 13H11.3452ZM21.1861 13.1705C20.3111 13.1705 19.5876 12.9886 19.0156 12.625C18.4437 12.2576 18.0421 11.7386 17.8111 11.0682C17.5838 10.3939 17.5459 9.60038 17.6974 8.6875C17.8452 7.78977 18.1463 7.00189 18.6009 6.32386C19.0554 5.64205 19.6236 5.11174 20.3054 4.73295C20.991 4.35038 21.7486 4.15909 22.5781 4.15909C23.116 4.15909 23.6103 4.24621 24.0611 4.42045C24.5118 4.59091 24.8925 4.85606 25.2031 5.21591C25.5137 5.57576 25.7277 6.03409 25.8452 6.59091C25.9626 7.14394 25.9569 7.80303 25.8281 8.56818L25.7315 9.19886H18.5724L18.794 7.8125H23.9759C24.044 7.41856 24.0213 7.06818 23.9077 6.76136C23.794 6.45076 23.6046 6.20644 23.3395 6.02841C23.0743 5.85038 22.7429 5.76136 22.3452 5.76136C21.9399 5.76136 21.5611 5.86553 21.2088 6.07386C20.8603 6.27841 20.5668 6.54356 20.3281 6.86932C20.0895 7.19508 19.938 7.53788 19.8736 7.89773L19.6406 9.22727C19.5573 9.77273 19.5762 10.2178 19.6974 10.5625C19.8187 10.9072 20.0308 11.161 20.3338 11.3239C20.6368 11.4867 21.0194 11.5682 21.4815 11.5682C21.7846 11.5682 22.0649 11.5265 22.3224 11.4432C22.58 11.3598 22.8092 11.2348 23.0099 11.0682C23.2145 10.8977 23.3849 10.6894 23.5213 10.4432L25.402 10.6591C25.1937 11.1667 24.8887 11.6098 24.4872 11.9886C24.0857 12.3636 23.6046 12.6553 23.044 12.8636C22.4872 13.0682 21.8679 13.1705 21.1861 13.1705ZM21.9247 3.125L20.6179 0.528409H22.6293L23.4645 3.125H21.9247ZM34.8054 6.57955L32.9134 6.78409C32.8944 6.59091 32.8357 6.41098 32.7372 6.24432C32.6387 6.07765 32.491 5.94508 32.294 5.84659C32.1009 5.74432 31.8509 5.69318 31.544 5.69318C31.0971 5.69318 30.705 5.79356 30.3679 5.99432C30.0308 6.19508 29.8395 6.45265 29.794 6.76705C29.7524 7.00189 29.8092 7.19318 29.9645 7.34091C30.1198 7.48864 30.4077 7.61364 30.8281 7.71591L32.2713 8.03409C33.0668 8.21212 33.6387 8.5 33.9872 8.89773C34.3395 9.29545 34.4626 9.81629 34.3565 10.4602C34.2656 10.9981 34.0308 11.4716 33.652 11.8807C33.2732 12.286 32.7884 12.6023 32.1974 12.8295C31.6103 13.0568 30.9588 13.1705 30.2429 13.1705C29.1558 13.1705 28.3187 12.9451 27.7315 12.4943C27.1482 12.0398 26.8584 11.4148 26.8622 10.6193L28.8849 10.4261C28.9077 10.8201 29.0459 11.1174 29.2997 11.3182C29.5535 11.5152 29.9058 11.6155 30.3565 11.6193C30.8641 11.6231 31.2921 11.517 31.6406 11.3011C31.9929 11.0814 32.1918 10.8144 32.2372 10.5C32.2751 10.2652 32.2164 10.0739 32.0611 9.92614C31.9096 9.77841 31.6387 9.66098 31.2486 9.57386L29.8168 9.26136C29.0062 9.08333 28.4285 8.7822 28.0838 8.35795C27.7429 7.92992 27.6274 7.39015 27.7372 6.73864C27.8281 6.20833 28.0497 5.75189 28.402 5.36932C28.758 4.98295 29.2145 4.68561 29.7713 4.47727C30.3281 4.26515 30.9512 4.15909 31.6406 4.15909C32.6785 4.15909 33.4607 4.37689 33.9872 4.8125C34.5137 5.24811 34.7865 5.83712 34.8054 6.57955Z" fill="#FD3D57"/>
<path d="M35.6037 13L35.8594 11.4773L40.5526 7.51705C41.0033 7.12689 41.3821 6.7803 41.6889 6.47727C41.9995 6.17045 42.2438 5.87689 42.4219 5.59659C42.5999 5.3125 42.7154 5.00947 42.7685 4.6875C42.8291 4.32008 42.7988 4.00379 42.6776 3.73864C42.5563 3.47348 42.3632 3.27083 42.098 3.13068C41.8366 2.98674 41.5204 2.91477 41.1491 2.91477C40.7666 2.91477 40.4162 2.99432 40.098 3.15341C39.7798 3.30871 39.5147 3.5322 39.3026 3.82386C39.0942 4.11174 38.9579 4.45265 38.8935 4.84659H36.8878C37.009 4.10795 37.2855 3.46591 37.7173 2.92045C38.1491 2.375 38.6889 1.95265 39.3366 1.65341C39.9844 1.35417 40.6927 1.20455 41.4616 1.20455C42.242 1.20455 42.901 1.35038 43.4389 1.64205C43.9806 1.93371 44.3707 2.33333 44.6094 2.84091C44.8518 3.34848 44.9181 3.92803 44.8082 4.57955C44.7325 5.01515 44.5753 5.44318 44.3366 5.86364C44.1018 6.2803 43.7325 6.74621 43.2287 7.26136C42.7249 7.77273 42.0355 8.39205 41.1605 9.11932L38.8253 11.1591L38.8082 11.2386H43.8707L43.581 13H35.6037ZM54.8139 4.27273L50.2514 13H47.9787L46.3253 4.27273H48.4389L49.3707 10.7557H49.4616L52.5469 4.27273H54.8139ZM58.3153 13.1705C57.4555 13.1705 56.7396 12.9811 56.1676 12.6023C55.5994 12.2235 55.1998 11.6913 54.9688 11.0057C54.7377 10.3201 54.696 9.52462 54.8438 8.61932C54.9915 7.72538 55.2869 6.94318 55.7301 6.27273C56.1771 5.60227 56.7396 5.08333 57.4176 4.71591C58.0994 4.3447 58.8627 4.15909 59.7074 4.15909C60.5672 4.15909 61.2813 4.35038 61.8494 4.73295C62.4176 5.11174 62.8172 5.64394 63.0483 6.32955C63.2831 7.01515 63.3267 7.81439 63.179 8.72727C63.035 9.61742 62.7377 10.3958 62.2869 11.0625C61.84 11.7292 61.2775 12.2481 60.5994 12.6193C59.9214 12.9867 59.16 13.1705 58.3153 13.1705ZM58.4858 11.5227C58.9631 11.5227 59.3816 11.3939 59.7415 11.1364C60.1051 10.875 60.4025 10.5246 60.6335 10.0852C60.8684 9.64205 61.0313 9.14962 61.1222 8.60795C61.2055 8.08523 61.2074 7.61174 61.1278 7.1875C61.0483 6.75947 60.8778 6.42045 60.6165 6.17045C60.3589 5.91667 60.0009 5.78977 59.5426 5.78977C59.0653 5.78977 58.643 5.92235 58.2756 6.1875C57.9119 6.44886 57.6146 6.80114 57.3835 7.24432C57.1525 7.68371 56.9934 8.17424 56.9062 8.71591C56.8191 9.23864 56.8153 9.71212 56.8949 10.1364C56.9744 10.5606 57.1449 10.8977 57.4062 11.1477C57.6676 11.3977 58.0275 11.5227 58.4858 11.5227ZM70.3906 9.32955L71.2372 4.27273H73.294L71.8395 13H69.8452L70.1065 11.4489H70.0156C69.7429 11.9375 69.3527 12.3371 68.8452 12.6477C68.3414 12.9583 67.7618 13.1136 67.1065 13.1136C66.5346 13.1136 66.0516 12.9867 65.6577 12.733C65.2637 12.4754 64.9834 12.1023 64.8168 11.6136C64.6539 11.1212 64.6293 10.5265 64.7429 9.82955L65.6747 4.27273H67.7315L66.8565 9.51136C66.7694 10.0644 66.849 10.5038 67.0952 10.8295C67.3452 11.1553 67.7164 11.3182 68.2088 11.3182C68.5118 11.3182 68.8168 11.2443 69.1236 11.0966C69.4342 10.9489 69.705 10.7292 69.9361 10.4375C70.1671 10.142 70.3187 9.77273 70.3906 9.32955ZM81.9148 6.57955L80.0227 6.78409C80.0038 6.59091 79.9451 6.41098 79.8466 6.24432C79.7481 6.07765 79.6004 5.94508 79.4034 5.84659C79.2102 5.74432 78.9602 5.69318 78.6534 5.69318C78.2064 5.69318 77.8144 5.79356 77.4773 5.99432C77.1402 6.19508 76.9489 6.45265 76.9034 6.76705C76.8617 7.00189 76.9186 7.19318 77.0739 7.34091C77.2292 7.48864 77.517 7.61364 77.9375 7.71591L79.3807 8.03409C80.1761 8.21212 80.7481 8.5 81.0966 8.89773C81.4489 9.29545 81.572 9.81629 81.4659 10.4602C81.375 10.9981 81.1402 11.4716 80.7614 11.8807C80.3826 12.286 79.8977 12.6023 79.3068 12.8295C78.7197 13.0568 78.0682 13.1705 77.3523 13.1705C76.2652 13.1705 75.428 12.9451 74.8409 12.4943C74.2576 12.0398 73.9678 11.4148 73.9716 10.6193L75.9943 10.4261C76.017 10.8201 76.1553 11.1174 76.4091 11.3182C76.6629 11.5152 77.0152 11.6155 77.4659 11.6193C77.9735 11.6231 78.4015 11.517 78.75 11.3011C79.1023 11.0814 79.3011 10.8144 79.3466 10.5C79.3845 10.2652 79.3258 10.0739 79.1705 9.92614C79.0189 9.77841 78.7481 9.66098 78.358 9.57386L76.9261 9.26136C76.1155 9.08333 75.5379 8.7822 75.1932 8.35795C74.8523 7.92992 74.7367 7.39015 74.8466 6.73864C74.9375 6.20833 75.1591 5.75189 75.5114 5.36932C75.8674 4.98295 76.3239 4.68561 76.8807 4.47727C77.4375 4.26515 78.0606 4.15909 78.75 4.15909C79.7879 4.15909 80.5701 4.37689 81.0966 4.8125C81.6231 5.24811 81.8958 5.83712 81.9148 6.57955Z" fill="black"/>
</svg>
