<svg width="103" height="21" viewBox="0 0 103 21" fill="none" xmlns="http://www.w3.org/2000/svg">
<path d="M0.737216 20.0909L3.25142 5.09091H5.77983L5.48864 6.89489H5.63778C5.80824 6.62973 6.03788 6.34801 6.3267 6.04972C6.62027 5.74669 6.99195 5.48864 7.44176 5.27557C7.89157 5.05777 8.43845 4.94886 9.08239 4.94886C9.92045 4.94886 10.6425 5.1643 11.2486 5.59517C11.8546 6.02131 12.2879 6.65341 12.5483 7.49148C12.8134 8.32481 12.8466 9.34754 12.6477 10.5597C12.4489 11.7576 12.0819 12.7756 11.5469 13.6136C11.0118 14.4517 10.3703 15.0909 9.62216 15.5312C8.87405 15.9716 8.0715 16.1918 7.21449 16.1918C6.58949 16.1918 6.08523 16.0876 5.7017 15.8793C5.32292 15.6709 5.03646 15.42 4.84233 15.1264C4.6482 14.8281 4.50379 14.5464 4.40909 14.2812H4.29545L3.32955 20.0909H0.737216ZM4.86364 10.5455C4.75 11.2509 4.74763 11.8688 4.85653 12.3991C4.97017 12.9295 5.19508 13.3437 5.53125 13.642C5.86742 13.9356 6.30777 14.0824 6.85227 14.0824C7.42045 14.0824 7.91761 13.9309 8.34375 13.6278C8.77462 13.3201 9.1321 12.901 9.41619 12.3707C9.70502 11.8357 9.90862 11.2273 10.027 10.5455C10.1359 9.86837 10.1359 9.26705 10.027 8.74148C9.91809 8.21591 9.69792 7.80398 9.36648 7.50568C9.03504 7.20739 8.58523 7.05824 8.01705 7.05824C7.46307 7.05824 6.96828 7.20265 6.53267 7.49148C6.1018 7.7803 5.74432 8.18513 5.46023 8.70597C5.17614 9.2268 4.97727 9.83996 4.86364 10.5455ZM13.9315 16L15.7496 5.09091H18.2425L17.9371 6.90909H18.0508C18.3491 6.27936 18.7705 5.79403 19.315 5.45312C19.8642 5.10748 20.4513 4.93466 21.0763 4.93466C21.2231 4.93466 21.3817 4.94176 21.5522 4.95597C21.7227 4.96544 21.8694 4.98201 21.9925 5.00568L21.5948 7.37074C21.4859 7.33286 21.3155 7.29972 21.0835 7.27131C20.8562 7.23816 20.6313 7.22159 20.4087 7.22159C19.94 7.22159 19.5044 7.32339 19.1019 7.52699C18.7042 7.72585 18.368 8.00284 18.0934 8.35795C17.8188 8.71307 17.6412 9.12263 17.5607 9.58665L16.5025 16H13.9315ZM26.2326 16.2131C25.1388 16.2131 24.2345 15.9858 23.5195 15.5312C22.8046 15.072 22.3027 14.4233 22.0138 13.5852C21.7298 12.7424 21.6824 11.7505 21.8718 10.6094C22.0565 9.48722 22.4329 8.50237 23.0011 7.65483C23.5692 6.80256 24.2795 6.13968 25.1317 5.66619C25.9888 5.18797 26.9357 4.94886 27.9727 4.94886C28.645 4.94886 29.2629 5.05777 29.8263 5.27557C30.3898 5.48864 30.8656 5.82008 31.2539 6.26989C31.6422 6.7197 31.9097 7.29261 32.0565 7.98864C32.2032 8.67992 32.1961 9.50379 32.0352 10.4602L31.9144 11.2486H22.9656L23.2425 9.51562H29.7198C29.805 9.0232 29.7766 8.58523 29.6346 8.2017C29.4925 7.81345 29.2558 7.50805 28.9244 7.28551C28.5929 7.06297 28.1786 6.9517 27.6815 6.9517C27.1748 6.9517 26.7013 7.08191 26.261 7.34233C25.8254 7.59801 25.4585 7.92945 25.1602 8.33665C24.8619 8.74384 24.6725 9.17235 24.592 9.62216L24.3008 11.2841C24.1966 11.9659 24.2203 12.5223 24.3718 12.9531C24.5233 13.384 24.7885 13.7012 25.1673 13.9048C25.546 14.1084 26.0243 14.2102 26.6019 14.2102C26.9807 14.2102 27.3311 14.1581 27.6531 14.054C27.975 13.9498 28.2615 13.7936 28.5124 13.5852C28.7681 13.3722 28.9812 13.1117 29.1516 12.804L31.5025 13.0739C31.2421 13.7083 30.8609 14.2623 30.359 14.7358C29.8571 15.2045 29.2558 15.5691 28.555 15.8295C27.859 16.0852 27.0849 16.2131 26.2326 16.2131ZM27.1559 3.65625L25.5224 0.410511H28.0366L29.0806 3.65625H27.1559ZM43.2567 7.97443L40.8917 8.23011C40.868 7.98864 40.7946 7.76373 40.6715 7.5554C40.5484 7.34706 40.3638 7.18134 40.1175 7.05824C39.8761 6.9304 39.5636 6.86648 39.18 6.86648C38.6213 6.86648 38.1313 6.99195 37.7099 7.2429C37.2885 7.49384 37.0494 7.81581 36.9925 8.20881C36.9405 8.50237 37.0115 8.74148 37.2056 8.92614C37.3997 9.1108 37.7596 9.26705 38.2852 9.39489L40.0891 9.79261C41.0835 10.0152 41.7984 10.375 42.234 10.8722C42.6744 11.3693 42.8282 12.0204 42.6957 12.8253C42.582 13.4976 42.2885 14.0895 41.815 14.6009C41.3415 15.1075 40.7354 15.5028 39.9968 15.7869C39.2629 16.071 38.4485 16.2131 37.5536 16.2131C36.1947 16.2131 35.1483 15.9313 34.4144 15.3679C33.6853 14.7997 33.323 14.0185 33.3278 13.0241L35.8562 12.7827C35.8846 13.2751 36.0574 13.6468 36.3746 13.8977C36.6919 14.1439 37.1322 14.2694 37.6957 14.2741C38.3301 14.2789 38.8652 14.1463 39.3008 13.8764C39.7411 13.6018 39.9897 13.268 40.0465 12.875C40.0939 12.5814 40.0205 12.3423 39.8263 12.1577C39.637 11.973 39.2984 11.8262 38.8107 11.7173L37.021 11.3267C36.0077 11.1042 35.2856 10.7277 34.8548 10.1974C34.4286 9.66241 34.2842 8.98769 34.4215 8.1733C34.5352 7.51042 34.8121 6.93987 35.2525 6.46165C35.6976 5.97869 36.2681 5.60701 36.9641 5.34659C37.6602 5.08144 38.439 4.94886 39.3008 4.94886C40.5981 4.94886 41.5759 5.22112 42.234 5.76562C42.8922 6.31013 43.2331 7.0464 43.2567 7.97443Z" fill="#FD3D57"/>
<path d="M44.2546 16L44.5742 14.0966L50.4407 9.14631C51.0041 8.65862 51.4776 8.22538 51.8612 7.84659C52.2494 7.46307 52.5548 7.09612 52.7773 6.74574C52.9999 6.39062 53.1443 6.01184 53.2106 5.60938C53.2863 5.15009 53.2485 4.75473 53.0969 4.4233C52.9454 4.09186 52.704 3.83854 52.3725 3.66335C52.0458 3.48343 51.6504 3.39347 51.1864 3.39347C50.7082 3.39347 50.2702 3.4929 49.8725 3.69176C49.4748 3.88589 49.1433 4.16525 48.8782 4.52983C48.6178 4.88968 48.4473 5.31581 48.3668 5.80824H45.8597C46.0112 4.88494 46.3569 4.08239 46.8967 3.40057C47.4364 2.71875 48.1112 2.19081 48.9208 1.81676C49.7305 1.44271 50.6159 1.25568 51.5771 1.25568C52.5524 1.25568 53.3763 1.43797 54.0487 1.80256C54.7257 2.16714 55.2134 2.66667 55.5117 3.30114C55.8147 3.93561 55.8976 4.66004 55.7603 5.47443C55.6656 6.01894 55.4691 6.55398 55.1708 7.07955C54.8772 7.60038 54.4156 8.18276 53.7859 8.8267C53.1561 9.46591 52.2944 10.2401 51.2006 11.1491L48.2816 13.6989L48.2603 13.7983H54.5884L54.2262 16H44.2546ZM68.2674 5.09091L62.5643 16H59.7234L57.6566 5.09091H60.2987L61.4634 13.1946H61.5771L65.4336 5.09091H68.2674ZM72.6442 16.2131C71.5694 16.2131 70.6745 15.9763 69.9595 15.5028C69.2493 15.0294 68.7498 14.3641 68.4609 13.5071C68.1721 12.6501 68.12 11.6558 68.3047 10.5241C68.4893 9.40672 68.8587 8.42898 69.4126 7.59091C69.9714 6.75284 70.6745 6.10417 71.522 5.64489C72.3743 5.18087 73.3284 4.94886 74.3842 4.94886C75.459 4.94886 76.3516 5.18797 77.0618 5.66619C77.772 6.13968 78.2715 6.80492 78.5604 7.66193C78.8539 8.51894 78.9084 9.51799 78.7237 10.6591C78.5438 11.7718 78.1721 12.7448 77.6087 13.5781C77.05 14.4115 76.3468 15.0601 75.4993 15.5241C74.6518 15.9834 73.7 16.2131 72.6442 16.2131ZM72.8572 14.1534C73.4538 14.1534 73.977 13.9924 74.4268 13.6705C74.8814 13.3437 75.2531 12.9058 75.5419 12.3565C75.8355 11.8026 76.0391 11.187 76.1527 10.5099C76.2569 9.85653 76.2592 9.26468 76.1598 8.73438C76.0604 8.19934 75.8473 7.77557 75.5206 7.46307C75.1986 7.14583 74.7512 6.98722 74.1783 6.98722C73.5817 6.98722 73.0537 7.15294 72.5945 7.48438C72.1399 7.81108 71.7682 8.25142 71.4794 8.8054C71.1906 9.35464 70.9917 9.9678 70.8828 10.6449C70.7739 11.2983 70.7692 11.8902 70.8686 12.4205C70.968 12.9508 71.1811 13.3722 71.5078 13.6847C71.8345 13.9972 72.2843 14.1534 72.8572 14.1534ZM87.7383 11.4119L88.7965 5.09091H91.3675L89.5494 16H87.0565L87.3832 14.0611H87.2695C86.9286 14.6719 86.4409 15.1714 85.8065 15.5597C85.1767 15.9479 84.4523 16.142 83.6332 16.142C82.9182 16.142 82.3145 15.9834 81.8221 15.6662C81.3297 15.3442 80.9793 14.8778 80.771 14.267C80.5674 13.6515 80.5366 12.9081 80.6786 12.0369L81.8434 5.09091H84.4144L83.3207 11.6392C83.2118 12.3305 83.3112 12.8797 83.619 13.2869C83.9315 13.6941 84.3955 13.8977 85.011 13.8977C85.3898 13.8977 85.771 13.8054 86.1545 13.6207C86.5427 13.4361 86.8813 13.1615 87.1701 12.7969C87.4589 12.4276 87.6483 11.9659 87.7383 11.4119ZM102.143 7.97443L99.7784 8.23011C99.7547 7.98864 99.6813 7.76373 99.5582 7.5554C99.4351 7.34706 99.2505 7.18134 99.0043 7.05824C98.7628 6.9304 98.4503 6.86648 98.0668 6.86648C97.508 6.86648 97.018 6.99195 96.5966 7.2429C96.1752 7.49384 95.9361 7.81581 95.8793 8.20881C95.8272 8.50237 95.8982 8.74148 96.0923 8.92614C96.2865 9.1108 96.6463 9.26705 97.1719 9.39489L98.9759 9.79261C99.9702 10.0152 100.685 10.375 101.121 10.8722C101.561 11.3693 101.715 12.0204 101.582 12.8253C101.469 13.4976 101.175 14.0895 100.702 14.6009C100.228 15.1075 99.6222 15.5028 98.8835 15.7869C98.1496 16.071 97.3352 16.2131 96.4403 16.2131C95.0814 16.2131 94.035 15.9313 93.3011 15.3679C92.572 14.7997 92.2098 14.0185 92.2145 13.0241L94.7429 12.7827C94.7713 13.2751 94.9441 13.6468 95.2614 13.8977C95.5786 14.1439 96.0189 14.2694 96.5824 14.2741C97.2169 14.2789 97.7519 14.1463 98.1875 13.8764C98.6278 13.6018 98.8764 13.268 98.9332 12.875C98.9806 12.5814 98.9072 12.3423 98.7131 12.1577C98.5237 11.973 98.1851 11.8262 97.6974 11.7173L95.9077 11.3267C94.8944 11.1042 94.1723 10.7277 93.7415 10.1974C93.3153 9.66241 93.1709 8.98769 93.3082 8.1733C93.4219 7.51042 93.6989 6.93987 94.1392 6.46165C94.5843 5.97869 95.1548 5.60701 95.8509 5.34659C96.5469 5.08144 97.3258 4.94886 98.1875 4.94886C99.4848 4.94886 100.463 5.22112 101.121 5.76562C101.779 6.31013 102.12 7.0464 102.143 7.97443Z" fill="black"/>
</svg>
